<svg xmlns="http://www.w3.org/2000/svg" viewBox="0 0 900 560" width="900" height="560">
<rect width="900" height="560" fill="#0A1626"/>
<defs><style>
.c{fill:none;stroke:#E8B923;stroke-width:1.5}
.i{fill:none;stroke:#7FA9DC;stroke-width:1;stroke-dasharray:5 3}
.t{fill:#9FBEE0;font:9px ui-monospace,monospace;letter-spacing:1px}
.h{fill:#E8B923;font:bold 14px ui-monospace,monospace;letter-spacing:2px}
</style></defs>
<text class="h" x="40" y="42">FRAME PANELS — 6MM STEEL · LASER CUT</text>
<text class="t" x="40" y="60">CUT ON GOLD LINES · DASHED = REFERENCE ONLY · DEBURR ALL EDGES</text>
<rect class="c" x="40" y="90" width="300" height="200"/>
<circle class="c" cx="70" cy="120" r="5"/><circle class="c" cx="310" cy="120" r="5"/>
<circle class="c" cx="70" cy="260" r="5"/><circle class="c" cx="310" cy="260" r="5"/>
<circle class="c" cx="190" cy="190" r="42"/>
<text class="t" x="40" y="308">PANEL A — SIDE x2 · 300x200 · SHAFT BORE d84</text>
<rect class="c" x="380" y="90" width="220" height="200"/>
<circle class="c" cx="410" cy="120" r="5"/><circle class="c" cx="570" cy="120" r="5"/>
<circle class="c" cx="410" cy="260" r="5"/><circle class="c" cx="570" cy="260" r="5"/>
<rect class="c" x="430" y="150" width="120" height="90" rx="4"/>
<text class="t" x="380" y="308">PANEL B — REAR x1 · 220x200 · CABLE PORT</text>
<rect class="c" x="640" y="90" width="220" height="130"/>
<path class="c" d="M670 90 L700 220 L800 220 L830 90"/>
<text class="t" x="640" y="238">PANEL C — HOPPER THROAT x1</text>
<rect class="c" x="40" y="340" width="380" height="120"/>
<circle class="c" cx="70" cy="370" r="5"/><circle class="c" cx="390" cy="370" r="5"/>
<circle class="c" cx="70" cy="430" r="5"/><circle class="c" cx="390" cy="430" r="5"/>
<rect class="i" x="120" y="365" width="90" height="70"/>
<rect class="i" x="250" y="365" width="110" height="70"/>
<text class="t" x="40" y="478">PANEL D — BENCH TOP x1 · 380x120 · DASHED = MOTOR + REDUCER FOOTPRINT</text>
<rect class="c" x="460" y="340" width="180" height="120"/>
<rect class="c" x="486" y="366" width="60" height="40" rx="3"/>
<circle class="c" cx="600" cy="380" r="7"/><circle class="c" cx="600" cy="412" r="7"/>
<text class="t" x="460" y="478">PANEL E — CONTROL FASCIA x1</text>
<text class="t" x="40" y="520">TOTAL SHEET AREA ~0.42 M2 · MATERIAL COST APPROX $45 AT ND INNOVATION LAB</text>
</svg>
